<?xml version="1.0" encoding="utf-8"?>
<svg width="127px" height="27px" viewBox="0 0 127 27" version="1.1" xmlns:xlink="http://www.w3.org/1999/xlink" xmlns="http://www.w3.org/2000/svg">
  <desc>Created with Lunacy</desc>
  <defs>
    <filter filterUnits="userSpaceOnUse" color-interpolation-filters="sRGB" id="filter_1">
      <feFlood flood-opacity="0" result="BackgroundImageFix" />
      <feColorMatrix in="SourceAlpha" type="matrix" values="0 0 0 0 0 0 0 0 0 0 0 0 0 0 0 0 0 0 127 0" />
      <feOffset dx="1" dy="2" />
      <feGaussianBlur stdDeviation="0.5" />
      <feColorMatrix type="matrix" values="0 0 0 0 0.14509805 0 0 0 0 0.14509805 0 0 0 0 0.14509805 0 0 0 1 0" />
      <feBlend mode="normal" in2="BackgroundImageFix" result="effect0_dropShadow" />
      <feColorMatrix in="SourceAlpha" type="matrix" values="0 0 0 0 0 0 0 0 0 0 0 0 0 0 0 0 0 0 127 0" />
      <feOffset dx="-1" dy="-2" />
      <feGaussianBlur stdDeviation="0.5" />
      <feColorMatrix type="matrix" values="0 0 0 0 0.24705882 0 0 0 0 0.24313726 0 0 0 0 0.24313726 0 0 0 1 0" />
      <feBlend mode="normal" in2="effect0_dropShadow" result="effect1_dropShadow" />
      <feBlend mode="normal" in="SourceGraphic" in2="effect1_dropShadow" result="shape" />
    </filter>
    <path d="M0 0L126.474 0L126.474 27L0 27L0 0Z" id="path_1" />
    <clipPath id="mask_1">
      <use xlink:href="#path_1" />
    </clipPath>
  </defs>
  <g id="GOLFIN">
    <path d="M0 0L126.474 0L126.474 27L0 27L0 0Z" id="Background" fill="none" fill-rule="evenodd" stroke="none" />
    <g clip-path="url(#mask_1)">
      <g id="GOLFIN" transform="translate(1.0230713 5.1726685)">
        <path d="M9.43011 14.8074C9.06253 14.8491 8.65895 14.8699 8.21937 14.8699C7.34021 14.8699 6.53684 14.7221 5.80926 14.4265C5.08168 14.1309 4.45263 13.7027 3.92211 13.1419C3.39158 12.5811 2.98042 11.8971 2.68863 11.0899C2.39684 10.2827 2.25095 9.36379 2.25095 8.33305C2.25095 7.34779 2.39116 6.45916 2.67158 5.66716C2.952 4.87516 3.35368 4.20063 3.87663 3.64358C4.39958 3.08653 5.03242 2.65832 5.77516 2.35895C6.51789 2.05958 7.34779 1.90989 8.26484 1.90989C8.89389 1.90989 9.43768 1.95916 9.89621 2.05768C10.3547 2.15621 10.7526 2.27558 11.0899 2.41579C11.4272 2.556 11.7133 2.70189 11.9482 2.85347C12.1832 3.00505 12.3954 3.13389 12.5848 3.24C12.7288 3.32337 12.8615 3.36505 12.9827 3.36505C13.1874 3.36505 13.3541 3.26274 13.4829 3.0581L14.1082 2.05768C13.7596 1.73937 13.3844 1.45326 12.9827 1.19937C12.5811 0.945474 12.1434 0.729473 11.6697 0.551368C11.196 0.373263 10.6825 0.236842 10.1293 0.142105C9.576 0.0473684 8.97726 0 8.33305 0C7.05979 0 5.90968 0.200842 4.88274 0.602526C3.85579 1.00421 2.98042 1.57074 2.25663 2.30211C1.53284 3.03347 0.975789 3.91074 0.585474 4.93389C0.195158 5.95705 0 7.0901 0 8.33305C0 9.56084 0.198947 10.6863 0.596842 11.7095C0.994737 12.7326 1.54989 13.6099 2.26232 14.3413C2.97474 15.0726 3.82358 15.6411 4.80884 16.0465C5.79411 16.452 6.87789 16.6547 8.06021 16.6547C8.73474 16.6547 9.36 16.6187 9.936 16.5467C10.512 16.4747 11.052 16.3648 11.556 16.2171C12.06 16.0693 12.5337 15.8855 12.9771 15.6657C13.4204 15.4459 13.8467 15.1882 14.256 14.8926L14.256 8.64L9.25389 8.64L9.25389 9.89053C9.25389 10.0118 9.29747 10.1141 9.38463 10.1975C9.47179 10.2808 9.58737 10.3225 9.73137 10.3225L12.2552 10.3225L12.2552 13.9149C11.9672 14.0665 11.6792 14.2011 11.3912 14.3185C11.1032 14.436 10.7962 14.5364 10.4703 14.6198C10.1444 14.7032 9.79768 14.7657 9.43011 14.8074L9.43011 14.8074ZM39.3007 11.6924C39.6872 10.6731 39.8805 9.55326 39.8805 8.33305C39.8805 7.11284 39.6872 5.99305 39.3007 4.97368C38.9142 3.95432 38.3685 3.07516 37.6636 2.33621C36.9588 1.59726 36.1118 1.02316 35.1228 0.613895C34.1337 0.204632 33.0405 0 31.843 0C30.6455 0 29.5542 0.204632 28.5689 0.613895C27.5836 1.02316 26.7386 1.59726 26.0337 2.33621C25.3289 3.07516 24.7832 3.95432 24.3967 4.97368C24.0102 5.99305 23.8169 7.11284 23.8169 8.33305C23.8169 9.55326 24.0102 10.6731 24.3967 11.6924C24.7832 12.7118 25.3289 13.5891 26.0337 14.3242C26.7386 15.0594 27.5836 15.6297 28.5689 16.0352C29.5542 16.4406 30.6455 16.6434 31.843 16.6434C33.0405 16.6434 34.1337 16.4406 35.1228 16.0352C36.1118 15.6297 36.9588 15.0594 37.6636 14.3242C38.3685 13.5891 38.9142 12.7118 39.3007 11.6924L39.3007 11.6924ZM52.2038 14.6198L59.2522 14.6198L59.2522 16.4728L49.9983 16.4728L49.9983 0.181885L52.2038 0.181885L52.2038 14.6198L52.2038 14.6198ZM78.8286 1.9781L78.8286 0.181885L68.7903 0.181885L68.7903 16.4728L71.0071 16.4728L71.0071 9.46988L77.6918 9.46988L77.6918 7.67367L71.0071 7.67367L71.0071 1.9781L78.8286 1.9781L78.8286 1.9781ZM91.3793 16.4728L89.1738 16.4728L89.1738 0.181885L91.3793 0.181885L91.3793 16.4728L91.3793 16.4728ZM104.425 0.25578C104.33 0.206516 104.184 0.181885 103.987 0.181885L102.85 0.181885L102.85 16.4728L104.783 16.4728L104.783 4.86567C104.783 4.71409 104.779 4.54736 104.771 4.36546C104.764 4.18357 104.752 3.99788 104.737 3.80841L114.162 16.0749C114.275 16.2189 114.391 16.3213 114.508 16.3819C114.626 16.4426 114.772 16.4728 114.946 16.4728L116.06 16.4728L116.06 0.181885L114.128 0.181885L114.128 11.7208C114.128 11.8951 114.131 12.0751 114.139 12.2608C114.147 12.4465 114.162 12.6379 114.184 12.8349L104.749 0.557043C104.627 0.405464 104.519 0.305043 104.425 0.25578L104.425 0.25578ZM37.2088 5.63875C37.4816 6.43454 37.6181 7.33265 37.6181 8.33307C37.6181 9.33349 37.4816 10.2297 37.2088 11.0217C36.936 11.8137 36.5494 12.4844 36.0492 13.0339C35.549 13.5834 34.9427 14.004 34.2303 14.2958C33.5179 14.5876 32.7221 14.7335 31.8429 14.7335C30.9713 14.7335 30.1793 14.5876 29.4669 14.2958C28.7545 14.004 28.1463 13.5834 27.6423 13.0339C27.1383 12.4844 26.7499 11.8137 26.477 11.0217C26.2042 10.2297 26.0677 9.33349 26.0677 8.33307C26.0677 7.33265 26.2042 6.43454 26.477 5.63875C26.7499 4.84296 27.1383 4.17033 27.6423 3.62086C28.1463 3.07139 28.7545 2.64886 29.4669 2.35328C30.1793 2.0577 30.9713 1.90991 31.8429 1.90991C32.7221 1.90991 33.5179 2.0577 34.2303 2.35328C34.9427 2.64886 35.549 3.07139 36.0492 3.62086C36.5494 4.17033 36.936 4.84296 37.2088 5.63875L37.2088 5.63875Z" id="Shape" fill="#48B328" fill-rule="evenodd" stroke="none" filter="url(#filter_1)" />
      </g>
    </g>
  </g>
</svg>