<?xml version="1.0" encoding="utf-8"?>
<svg width="30px" height="28px" viewBox="0 0 30 28" version="1.1" xmlns:xlink="http://www.w3.org/1999/xlink" xmlns="http://www.w3.org/2000/svg">
  <desc>Created with Lunacy</desc>
  <g id="Capa_2">
    <g id="Capa_2-2">
      <path d="M6.63079 8.83061C6.65291 6.13196 8.85037 3.95781 11.5491 3.96447L23.0788 4.03004C22.6232 1.7506 20.6339 0.101376 18.3095 0.0760223L4.99731 1.1713e-05C2.29891 -0.00582152 0.10194 2.16785 0.0790025 4.86616L1.16515e-05 18.1828C-0.00580623 20.8813 2.16788 23.0782 4.86618 23.1012L6.65463 23.1116C6.59211 22.7925 6.56116 22.468 6.56223 22.1428L6.63079 8.83061Z" id="Shape" fill="#FCFCFC" fill-rule="evenodd" stroke="none" />
      <path d="M18.2126 0.014904L16.4316 0C16.4944 0.318535 16.5249 0.642606 16.5225 0.967269L16.448 14.2765C16.4259 16.9752 14.2284 19.1493 11.5297 19.1427L0 19.0786C0.456227 21.3574 2.44533 23.0059 4.76927 23.0311L18.08 23.1071C20.7784 23.1129 22.9754 20.9393 22.9983 18.241L23.0743 4.93172C23.0743 2.23912 20.9074 0.0465737 18.2138 0.0149174L18.2126 0.014904Z" transform="translate(6.650268 4.024084)" id="Shape" fill="#FCFCFC" fill-rule="evenodd" stroke="none" />
    </g>
  </g>
</svg>