<svg xmlns="http://www.w3.org/2000/svg" xmlns:xlink="http://www.w3.org/1999/xlink" viewBox="0 0 494.82 182.08"><defs><style>.cls-1{font-size:65px;fill:#35484d;font-family:Lato-Regular, Lato;letter-spacing:0.04em;}.cls-2{fill:url(#Degradado_sin_nombre_4);}.cls-3{fill:url(#Degradado_sin_nombre_4-2);}</style><linearGradient id="Degradado_sin_nombre_4" y1="77.52" x2="154.87" y2="77.52" gradientUnits="userSpaceOnUse"><stop offset="0" stop-color="#35484d"/><stop offset="1" stop-color="#34555e"/></linearGradient><linearGradient id="Degradado_sin_nombre_4-2" x1="44.6" y1="104.56" x2="199.47" y2="104.56" xlink:href="#Degradado_sin_nombre_4"/></defs><title>deskRecurso 1</title><g id="Capa_2" data-name="Capa 2"><g id="Capa_2-2" data-name="Capa 2"><text class="cls-1" transform="translate(239.57 118.71)">GOLFIN</text><path class="cls-2" d="M44.49,59.25a32.92,32.92,0,0,1,33-32.65l77.36.44a33,33,0,0,0-32-26.53L33.53,0a32.93,32.93,0,0,0-33,32.65L0,122a32.93,32.93,0,0,0,32.65,33l12,.07a33.24,33.24,0,0,1-.62-6.5Z"/><path class="cls-3" d="M166.82,27.1,154.87,27a32.32,32.32,0,0,1,.61,6.49l-.5,89.3a32.92,32.92,0,0,1-33,32.65l-77.36-.43a33,33,0,0,0,32,26.52l89.31.51a32.93,32.93,0,0,0,33-32.65l.51-89.3A33,33,0,0,0,166.82,27.1Z"/></g></g></svg>